<?xml version="1.0" encoding="UTF-8"?>
<svg width="122px" height="122px" viewBox="0 0 122 122" version="1.1" xmlns="http://www.w3.org/2000/svg" xmlns:xlink="http://www.w3.org/1999/xlink">
    <!-- Generator: Sketch 46.1 (44463) - http://www.bohemiancoding.com/sketch -->
    <title>Rectangle 3</title>
    <desc>Created with Sketch.</desc>
    <defs>
        <path d="M42.5342833,0 L79.4657167,0 C91.7135,0 97.8358667,0 104.42895,2.08416667 C111.62695,4.70411667 117.295883,10.37305 119.915833,17.57105 C122,24.1631167 122,30.2875167 122,42.5342833 L122,79.4657167 C122,91.7135 122,97.8358667 119.915833,104.42895 C117.295883,111.62695 111.62695,117.295883 104.42895,119.914817 C97.8358667,122 91.7135,122 79.4657167,122 L42.5342833,122 C30.2865,122 24.1631167,122 17.57105,119.914817 C10.37305,117.295883 4.70411667,111.62695 2.08416667,104.42895 C0,97.8358667 0,91.7135 0,79.4657167 L0,42.5342833 C0,30.2875167 0,24.1631167 2.08416667,17.57105 C4.70411667,10.37305 10.37305,4.70411667 17.57105,2.08416667 C24.1631167,0 30.2865,0 42.5342833,0 L42.5342833,0" id="path-1"></path>
        <radialGradient cx="22.2235311%" cy="104.843526%" fx="22.2235311%" fy="104.843526%" r="56.3383814%" gradientTransform="translate(0.222235,1.048435),rotate(90.000000),scale(1.000000,1.349317),translate(-0.222235,-1.048435)" id="radialGradient-3">
            <stop stop-color="#F28133" stop-opacity="0" offset="0%"></stop>
            <stop stop-color="#FF832C" stop-opacity="0.810662681" offset="57.2957557%"></stop>
            <stop stop-color="#FF832C" offset="70.0968575%"></stop>
            <stop stop-color="#FF5500" stop-opacity="0.43" offset="82.5176971%"></stop>
            <stop stop-color="#E56447" stop-opacity="0" offset="100%"></stop>
        </radialGradient>
        <radialGradient cx="90.9434791%" cy="65.315877%" fx="90.9434791%" fy="65.315877%" r="151.975874%" gradientTransform="translate(0.909435,0.653159),rotate(-149.211091),scale(1.000000,1.349317),translate(-0.909435,-0.653159)" id="radialGradient-4">
            <stop stop-color="#D43086" offset="0%"></stop>
            <stop stop-color="#AA3493" stop-opacity="0.5" offset="86.979155%"></stop>
            <stop stop-color="#E56447" stop-opacity="0" offset="100%"></stop>
        </radialGradient>
        <radialGradient cx="27.6002076%" cy="1.72566276%" fx="27.6002076%" fy="1.72566276%" r="95.8162945%" gradientTransform="translate(0.276002,0.017257),rotate(-96.287979),scale(1.000000,4.032882),translate(-0.276002,-0.017257)" id="radialGradient-5">
            <stop stop-color="#978CFF" offset="0%"></stop>
            <stop stop-color="#582DC7" stop-opacity="0.868347516" offset="15.3865692%"></stop>
            <stop stop-color="#AA3493" stop-opacity="0.5" offset="73.9209674%"></stop>
            <stop stop-color="#E56447" stop-opacity="0" offset="100%"></stop>
        </radialGradient>
        <radialGradient cx="27.6614577%" cy="97.7436359%" fx="27.6614577%" fy="97.7436359%" r="61.8522003%" gradientTransform="translate(0.276615,0.977436),rotate(90.000000),scale(1.000000,1.349317),translate(-0.276615,-0.977436)" id="radialGradient-6">
            <stop stop-color="#EFFF36" offset="0%"></stop>
            <stop stop-color="#F6B46B" stop-opacity="0.695471939" offset="71.3100607%"></stop>
            <stop stop-color="#E56447" stop-opacity="0" offset="100%"></stop>
        </radialGradient>
    </defs>
    <g id="Page-1" stroke="none" stroke-width="1" fill="none" fill-rule="evenodd">
        <rect id="Rectangle-3" x="-61" y="-47" width="245" height="217"></rect>
        <g id="Logo-Copy">
            <mask id="mask-2" fill="white">
                <use xlink:href="#path-1"></use>
            </mask>
            <use id="Mask-Copy" fill="#000000" opacity="0.100000001" xlink:href="#path-1"></use>
            <g id="Logo-Copy-2" mask="url(#mask-2)">
                <g id="Group">
                    <rect id="Orange" fill="url(#radialGradient-3)" style="mix-blend-mode: hard-light;" opacity="0.650305707" x="0" y="0" width="122" height="122"></rect>
                    <rect id="Magenta" fill="url(#radialGradient-4)" style="mix-blend-mode: hard-light;" x="0" y="0" width="122" height="122"></rect>
                    <rect id="Violet" fill="url(#radialGradient-5)" style="mix-blend-mode: hard-light;" x="0" y="0" width="122" height="122"></rect>
                    <rect id="Yellow" fill="url(#radialGradient-6)" style="mix-blend-mode: hard-light;" opacity="0.884680707" x="0" y="0" width="122" height="122"></rect>
                </g>
                <path d="M61.004,13 C47.968,13 46.332,13.057 41.212,13.29 C36.102,13.524 32.614,14.333 29.562,15.52 C26.405,16.746 23.727,18.386 21.059,21.055 C18.389,23.723 16.749,26.401 15.519,29.557 C14.329,32.61 13.519,36.099 13.289,41.207 C13.06,46.327 13,47.964 13,61 C13,74.036 13.058,75.667 13.29,80.787 C13.525,85.897 14.334,89.385 15.52,92.437 C16.747,95.594 18.387,98.272 21.056,100.94 C23.723,103.61 26.401,105.254 29.556,106.48 C32.61,107.667 36.099,108.476 41.208,108.71 C46.328,108.943 47.963,109 60.998,109 C74.035,109 75.666,108.943 80.786,108.71 C85.896,108.476 89.388,107.667 92.442,106.48 C95.598,105.254 98.272,103.61 100.939,100.94 C103.609,98.272 105.249,95.594 106.479,92.438 C107.659,89.385 108.469,85.896 108.709,80.788 C108.939,75.668 108.999,74.036 108.999,61 C108.999,47.964 108.939,46.328 108.709,41.208 C108.469,36.098 107.659,32.61 106.479,29.558 C105.249,26.401 103.609,23.723 100.939,21.055 C98.269,18.385 95.599,16.745 92.439,15.52 C89.379,14.333 85.889,13.524 80.779,13.29 C75.659,13.057 74.029,13 60.989,13 L61.004,13 Z M56.698,21.65 C57.976,21.648 59.402,21.65 61.004,21.65 C73.82,21.65 75.339,21.696 80.4,21.926 C85.08,22.14 87.62,22.922 89.312,23.579 C91.552,24.449 93.149,25.489 94.828,27.169 C96.508,28.849 97.548,30.449 98.42,32.689 C99.077,34.379 99.86,36.919 100.073,41.599 C100.303,46.659 100.353,48.179 100.353,60.989 C100.353,73.799 100.303,75.319 100.073,80.379 C99.859,85.059 99.077,87.599 98.42,89.289 C97.55,91.529 96.508,93.124 94.828,94.803 C93.148,96.483 91.553,97.523 89.312,98.393 C87.622,99.053 85.08,99.833 80.4,100.047 C75.34,100.277 73.82,100.327 61.004,100.327 C48.187,100.327 46.668,100.277 41.608,100.047 C36.928,99.831 34.388,99.049 32.695,98.392 C30.455,97.522 28.855,96.482 27.175,94.802 C25.495,93.122 24.455,91.526 23.583,89.285 C22.926,87.595 22.143,85.055 21.93,80.375 C21.7,75.315 21.654,73.795 21.654,60.977 C21.654,48.159 21.7,46.647 21.93,41.587 C22.144,36.907 22.926,34.367 23.583,32.675 C24.453,30.435 25.495,28.835 27.175,27.155 C28.855,25.475 30.455,24.435 32.695,23.563 C34.387,22.903 36.928,22.123 41.608,21.908 C46.036,21.708 47.752,21.648 56.698,21.638 L56.698,21.65 Z M86.626,29.62 C83.446,29.62 80.866,32.197 80.866,35.378 C80.866,38.558 83.446,41.138 86.626,41.138 C89.806,41.138 92.386,38.558 92.386,35.378 C92.386,32.198 89.806,29.618 86.626,29.618 L86.626,29.62 Z M61.004,36.35 C47.391,36.35 36.354,47.387 36.354,61 C36.354,74.613 47.391,85.645 61.004,85.645 C74.617,85.645 85.65,74.613 85.65,61 C85.65,47.387 74.616,36.35 61.003,36.35 L61.004,36.35 Z M61.004,45 C69.84,45 77.004,52.163 77.004,61 C77.004,69.836 69.84,77 61.004,77 C52.167,77 45.004,69.836 45.004,61 C45.004,52.163 52.167,45 61.004,45 Z" id="Shape-Copy" fill="#FFFFFF" fill-rule="nonzero"></path>
            </g>
        </g>
    </g>
</svg>